<?xml version="1.0" encoding="UTF-8" standalone="no"?>
<svg
   viewBox="0 0 1857.1429 428.57144"
   xml:space="preserve"
   version="1.1"
   id="svg23"
   sodipodi:docname="alura-challenges-reduced.svg"
   inkscape:version="1.2.1 (9c6d41e410, 2022-07-14)"
   width="260"
   height="60"
   inkscape:export-filename="alura-challenges-editado.png"
   inkscape:export-xdpi="96"
   inkscape:export-ydpi="96"
   xmlns:inkscape="http://www.inkscape.org/namespaces/inkscape"
   xmlns:sodipodi="http://sodipodi.sourceforge.net/DTD/sodipodi-0.dtd"
   xmlns="http://www.w3.org/2000/svg"
   xmlns:svg="http://www.w3.org/2000/svg"><defs
     id="defs27"><inkscape:path-effect
       effect="powerclip"
       id="path-effect905"
       is_visible="true"
       lpeversion="1"
       inverse="true"
       flatten="false"
       hide_clip="false"
       message="Utilice la regla de relleno parimpar en el diálogo &lt;b&gt;Relleno y borde&lt;/b&gt; si el resultado no está aplanada después de convertir el recorte en trayectos." /><clipPath
       clipPathUnits="userSpaceOnUse"
       id="clipPath893"><g
         inkscape:groupmode="layer"
         id="g903"
         inkscape:label="trazado"
         style="display:none"><path
           class="st3"
           d="m 204,228.7 c -4.7,30.2 -33.3,51.9 -68.6,51.9 -42.6,0 -73.6,-30.7 -73.6,-73.2 0,-5.2 0.5,-32.3 21.2,-52.9 9.4,-9.3 19.1,-13.5 23.6,-15.5 10.5,-4.5 21.2,-6.3 85.5,-6.3 h 3.6 c 7.3,9 14.6,18.1 21.9,27 -21.2,-0.1 -50.2,0.3 -81.4,2.1 -5.7,0.3 -14.3,0.9 -22.8,6.5 -11.8,7.7 -19,21.7 -19,39 0,26.7 17.4,45.5 41.8,45.5 17.4,0 33.1,-11.9 37.4,-28 z"
           id="path895" /><path
           class="st3"
           d="m 244.4,219.3 c 1.1,19 18.8,33.6 40.7,33.6 25.9,0 44.6,-19.2 44.6,-45.5 0,-16 -6.6,-29.3 -17.4,-37.3 -7.9,-5.9 -16.1,-7.1 -26.1,-8.3 -16.2,-1.8 -39.4,-3.4 -68.5,-2.1 -7.3,-9 -14.6,-18.1 -21.9,-27 16.2,-0.2 30.1,-0.1 41,0 23.8,0.2 35.8,0.6 41.8,0.9 10.3,0.4 15.4,0.7 17.3,0.9 6.9,0.9 32.4,4.6 50.3,26.2 14.7,17.7 16.1,38.4 16.1,46.6 0,42.4 -31.9,73.2 -76.4,73.2 -46.5,0 -77.3,-34.6 -72.8,-82.4 h 74 v 21.2 z m 64.7,-88.4 c -1.7,-0.6 -4.1,-1.4 -6.9,-2.2 -1.6,-0.4 -2.8,-0.8 -4.3,-1 -4.3,-0.9 -7.8,-0.9 -12.1,-1 -1.3,0 -3,-0.1 -5.2,0 V 68.6 h 28.6 c -0.1,20.7 -0.1,41.6 -0.1,62.3 z"
           id="path897" /><path
           d="m 219,319.6 c 0.4,2.2 2.7,12.7 13.1,18.9 0,0 7.7,4.1 17.4,4.2 1.1,0 16,-0.5 25.7,-11.4 7.4,-8.3 7.9,-18.2 8.1,-22.4 0.1,-1.1 0,-1.2 -0.2,-11.8 -0.1,-5.4 -0.2,-9.8 -0.2,-12.7 3.6,0.3 8.1,0.4 13.2,0 4,-0.3 7.5,-1 10.3,-1.7 v 26.1 c -0.1,4.3 -0.5,17.3 -8.9,29.9 -6.2,9.4 -14.4,14.7 -19,17.2 -14.7,8.1 -28.7,7.7 -31.4,7.6 -2.9,-0.2 -9.9,-0.7 -18.1,-3.8 -2.3,-0.9 -8.9,-3.5 -15.7,-9.1 -2.3,-1.8 -8.2,-7 -13.2,-15.5 -3.6,-6.1 -5.2,-11.7 -6,-15.8 8.4,0.1 16.6,0.2 24.9,0.3 z"
           style="fill:#ffffff;stroke:#ffffff;stroke-width:2"
           id="path899" /><path
           class="st3"
           d="m 232.1,293.8 h -47.7 c -6.9,0 -12.4,6.4 -12.4,14.2 v 2.7 c 0,7.8 5.6,14.2 12.4,14.2 h 47.8 c 6.9,0 12.4,-6.4 12.4,-14.2 V 308 c -0.2,-7.8 -5.8,-14.2 -12.5,-14.2 z"
           id="path901" /></g><path
         id="lpe_path-effect905"
         class="powerclip"
         d="M -0.20017167,6.9 H 423.7 v 424 H -0.20017167 Z M 204,228.7 173.6,224.8 c -4.3,16.1 -20,28 -37.4,28 -24.4,0 -41.8,-18.8 -41.8,-45.5 0,-17.3 7.2,-31.3 19,-39 8.5,-5.6 17.1,-6.2 22.8,-6.5 31.2,-1.8 60.2,-2.2 81.4,-2.1 -7.3,-8.9 -14.6,-18 -21.9,-27 h -3.6 c -64.3,0 -75,1.8 -85.5,6.3 -4.5,2 -14.2,6.2 -23.6,15.5 -20.7,20.6 -21.2,47.7 -21.2,52.9 0,42.5 31,73.2 73.6,73.2 35.3,0 63.9,-21.7 68.6,-51.9 z m 40.4,-9.4 h 42.7 v -21.2 h -74 c -4.5,47.8 26.3,82.4 72.8,82.4 44.5,0 76.4,-30.8 76.4,-73.2 0,-8.2 -1.4,-28.9 -16.1,-46.6 -17.9,-21.6 -43.4,-25.3 -50.3,-26.2 -1.9,-0.2 -7,-0.5 -17.3,-0.9 -6,-0.3 -18,-0.7 -41.8,-0.9 -10.9,-0.1 -24.8,-0.2 -41,0 7.3,8.9 14.6,18 21.9,27 29.1,-1.3 52.3,0.3 68.5,2.1 10,1.2 18.2,2.4 26.1,8.3 10.8,8 17.4,21.3 17.4,37.3 0,26.3 -18.7,45.5 -44.6,45.5 -21.9,0 -39.6,-14.6 -40.7,-33.6 z m 64.7,-88.4 c 0,-20.7 0,-41.6 0.1,-62.3 h -28.6 v 58.1 c 2.2,-0.1 3.9,0 5.2,0 4.3,0.1 7.8,0.1 12.1,1 1.5,0.2 2.7,0.6 4.3,1 2.8,0.8 5.2,1.6 6.9,2.2 z M 219,319.6 c -8.3,-0.1 -16.5,-0.2 -24.9,-0.3 0.8,4.1 2.4,9.7 6,15.8 5,8.5 10.9,13.7 13.2,15.5 6.8,5.6 13.4,8.2 15.7,9.1 8.2,3.1 15.2,3.6 18.1,3.8 2.7,0.1 16.7,0.5 31.4,-7.6 4.6,-2.5 12.8,-7.8 19,-17.2 8.4,-12.6 8.8,-25.6 8.9,-29.9 v -26.1 c -2.8,0.7 -6.3,1.4 -10.3,1.7 -5.1,0.4 -9.6,0.3 -13.2,0 0,2.9 0.1,7.3 0.2,12.7 0.2,10.6 0.3,10.7 0.2,11.8 -0.2,4.2 -0.7,14.1 -8.1,22.4 -9.7,10.9 -24.6,11.4 -25.7,11.4 -9.7,-0.1 -17.4,-4.2 -17.4,-4.2 -10.4,-6.2 -12.7,-16.7 -13.1,-18.9 z m 13.1,-25.8 h -47.7 c -6.9,0 -12.4,6.4 -12.4,14.2 v 2.7 c 0,7.8 5.6,14.2 12.4,14.2 h 47.8 c 6.9,0 12.4,-6.4 12.4,-14.2 V 308 c -0.2,-7.8 -5.8,-14.2 -12.5,-14.2 z" /></clipPath></defs><sodipodi:namedview
     id="namedview25"
     pagecolor="#ffffff"
     bordercolor="#000000"
     borderopacity="0.25"
     inkscape:showpageshadow="2"
     inkscape:pageopacity="0.0"
     inkscape:pagecheckerboard="0"
     inkscape:deskcolor="#d1d1d1"
     showgrid="false"
     inkscape:zoom="2.3756746"
     inkscape:cx="202.67927"
     inkscape:cy="79.977282"
     inkscape:window-width="1920"
     inkscape:window-height="1017"
     inkscape:window-x="-8"
     inkscape:window-y="-8"
     inkscape:window-maximized="1"
     inkscape:current-layer="svg23" /><style
     id="style2">.st0,.st1{fill:#363c41}.st1{fill-rule:evenodd;clip-rule:evenodd}.st3{fill:#fff}</style><g
     id="challenges"
     transform="matrix(1.4350762,0,0,1.4350762,-200.78499,-98.38803)"><path
       class="st0"
       d="m 592.9,295.2 c -2.2,22.5 -23.1,38.9 -49.6,38.9 -30.6,0 -52.7,-21.8 -52.7,-51.9 0,-30 22.1,-51.9 52.6,-51.9 26.3,0 47,16.5 49.5,39.4 l -27,2.9 c -2.2,-10 -11.2,-17.4 -21.6,-17.4 -14.4,0 -24.3,10.9 -24.3,26.9 0,16 9.9,26.9 24.1,26.9 10.4,0 19.5,-7.2 21.7,-17.1 z m 12.1,35.5 v -96.9 h 29.3 v 35.5 h 32.2 v -35.5 h 29.3 v 96.9 h -29.3 v -38.6 h -32.2 v 38.6 z"
       id="path4" /><path
       class="st1"
       d="m 776.1,330.7 h 30.6 l -30.3,-96.9 h -42.6 l -30.2,96.9 h 30.6 l 4.1,-14.6 H 772 Z m -9.7,-35.2 h -22.2 l 11.1,-37 z"
       id="path6" /><path
       class="st0"
       d="m 814.8,330.7 v -96.9 h 29.3 v 72 h 35.4 v 24.9 z m 76,0 v -96.9 h 29.3 v 72 h 35.4 v 24.9 z m 146.1,-23 v 23 h -70.3 v -96.9 h 68.9 v 22.9 h -40.7 v 14.8 h 35.4 v 19.8 h -35.4 v 16.5 h 42.1 z m 75.5,-12.3 v -61.6 h 27.2 v 96.9 h -30.5 l -33,-61.4 v 61.4 h -27.2 v -96.9 h 30.5 z m 92.5,-3.6 v -17.1 h 52.6 c 3.5,34.4 -18.2,59.3 -51.5,59.3 -31.4,0 -54.2,-21.8 -54.2,-51.9 0,-30 22.8,-51.9 54.2,-51.9 23.6,0 42.4,13.5 46.9,32.5 l -27,5 c -2.3,-7.3 -10.5,-12.6 -20.1,-12.6 -14.4,0 -24.8,11.2 -24.8,26.9 0,15.5 10.8,26.9 26,26.9 11.8,0 21.7,-7.5 22.6,-17.4 h -24.7 z m 135.3,15.9 v 23 h -70.3 v -96.9 h 68.9 v 22.9 h -40.7 v 14.8 h 35.4 v 19.8 h -35.4 v 16.5 h 42.1 z m 8.5,-8.9 h 25.3 c 0.2,8.2 7.8,14.3 18.3,14.3 8.6,0 14.2,-4.1 14.2,-9.5 0,-17.1 -57.3,-0.3 -57.3,-39.9 0,-20 17.1,-33.3 41.4,-33.3 24.3,0 41.8,14.2 41.9,33.8 h -24.4 c 0,-7.5 -7.2,-12.8 -16.7,-12.8 -8.2,0 -13.9,3.6 -13.9,8.8 0,16.2 57.3,-0.3 57.3,39.4 0,20.5 -17.9,34.5 -43.4,34.5 -24.8,0 -42.7,-14.9 -42.7,-35.3 z"
       id="path8" /></g><path
     class="st1"
     d="m 831.3218,139.54761 c -0.28701,1.43508 -1.14806,2.43963 -2.29613,3.30068 -1.14806,0.86104 -2.29611,1.14806 -3.30066,1.43507 -2.29613,0.86105 -4.73577,1.43508 -6.74486,2.43963 -2.43964,1.14806 -4.73576,1.7221 -6.74487,2.43963 -2.43963,1.14807 -5.02276,1.72209 -7.17538,2.43963 -1.72208,0.86104 -3.30067,1.72209 -5.02276,2.72664 -1.43508,1.14806 -2.43964,2.43963 -3.58769,4.16173 -1.14806,1.72209 -1.43508,3.8747 -1.43508,6.74485 0,5.30978 1.43508,9.1845 3.87471,12.19815 2.43962,2.43963 7.17538,3.87472 14.20725,3.87472 7.03188,0 11.62411,-1.43509 14.20726,-3.87472 2.43962,-2.72664 3.8747,-6.74485 3.8747,-11.76762 V 139.54761 Z M 812.95283,83.005608 c 12.48516,0 21.38263,2.43963 27.55346,7.175381 5.88381,5.022767 8.61045,11.193591 8.61045,18.368981 v 62.71283 c 0,2.43963 -0.28701,5.30978 -1.43507,8.32343 -1.14806,3.30068 -2.72664,5.88382 -5.30978,8.32345 -2.72665,2.43963 -6.45785,4.73575 -11.1936,6.45784 -4.73575,1.7221 -10.90658,2.43963 -18.36898,2.43963 -7.46239,0 -13.63323,-0.86104 -18.36897,-2.43963 -4.73575,-1.72209 -8.32343,-3.8747 -11.1936,-6.45784 -2.72663,-2.43963 -4.73575,-5.30979 -5.30978,-8.32345 -0.86104,-3.30066 -1.43507,-5.8838 -1.43507,-8.32343 v -10.33255 c 0,-5.30978 1.43507,-10.33255 3.8747,-14.78129 2.72664,-4.16172 6.74486,-7.4624 11.76763,-9.18448 2.43963,-1.14807 5.30978,-1.7221 8.61046,-2.72666 3.30067,-1.14806 6.45784,-2.29611 9.75852,-3.30067 3.30067,-1.14805 5.88381,-2.29611 7.74941,-2.72664 2.29612,-0.86104 3.58769,-1.43507 4.16172,-1.43507 0.28702,-0.28702 1.43508,-0.86106 2.29611,-1.14807 0.86106,-0.28701 1.7221,-1.43507 2.72666,-2.29612 0.86104,-1.14807 1.43508,-2.29612 2.29611,-3.30068 0.86105,-1.43507 0.86105,-2.72664 0.86105,-4.73575 v -3.8747 c 0,-1.43508 -0.28702,-2.72665 -0.86105,-4.16172 -0.28701,-1.43508 -1.43507,-2.72665 -2.72663,-3.87471 -1.43508,-1.43507 -3.30068,-2.29612 -5.88382,-3.30067 -2.29613,-0.86105 -5.30978,-1.14806 -8.89748,-1.14806 -7.17538,0 -11.62411,1.43507 -14.20725,4.16172 -2.29613,2.43962 -3.58769,5.88381 -3.58769,9.18449 0,0.86103 -0.86104,1.43507 -1.43508,1.43507 h -15.35532 c -0.86103,0 -1.43506,-0.86104 -1.43506,-1.43507 v -3.5877 c 0,-3.58768 0.86104,-6.74485 2.29611,-10.04553 1.43509,-3.300677 3.5877,-5.883814 6.45784,-8.323443 2.72666,-2.296122 6.74488,-4.161722 11.48062,-5.309781 4.73575,-0.861046 10.04554,-2.009108 16.50338,-2.009108 z M 566.83726,139.54761 c -0.28701,1.43508 -1.14807,2.43963 -2.29612,3.30068 -1.14806,0.86104 -2.29612,1.14806 -3.30068,1.43507 -2.29612,0.86105 -4.73575,1.43508 -6.74486,2.43963 -2.43962,1.14806 -4.73575,1.7221 -6.74485,2.43963 -2.43964,1.14807 -5.02277,1.72209 -7.17538,2.43963 -1.72211,0.86104 -3.30068,1.72209 -5.02277,2.72664 -1.43508,1.14806 -2.43963,2.43963 -3.58769,4.16173 -1.14805,1.72209 -1.43508,3.8747 -1.43508,6.74485 0,5.30978 1.43508,9.1845 3.87471,12.19815 2.43963,2.43963 7.17538,3.87472 14.20726,3.87472 7.03186,0 11.62411,-1.43509 14.78128,-3.87472 2.43963,-2.72664 3.8747,-6.74485 3.8747,-11.76762 z M 549.04231,83.005608 c 12.48517,0 21.38263,2.43963 27.55346,7.175381 5.88382,5.022767 8.61047,11.193591 8.61047,18.368981 v 62.71283 c 0,2.43963 -0.28702,5.30978 -1.43508,8.32343 -0.86106,3.30068 -2.72665,5.88382 -5.30979,8.32345 -2.72664,2.43963 -6.45783,4.73575 -11.19359,6.45784 -4.73575,1.7221 -10.90658,2.43963 -18.36898,2.43963 -7.46239,0 -13.63322,-0.86104 -18.36897,-2.43963 -4.73575,-1.72209 -8.32344,-3.8747 -11.19359,-6.45784 -2.72664,-2.43963 -4.73575,-5.30979 -5.30978,-8.32345 -1.14806,-3.30066 -1.43508,-5.8838 -1.43508,-8.32343 v -10.33255 c 0,-5.30978 1.43508,-10.33255 3.87471,-14.78129 2.72663,-4.16172 6.74485,-7.4624 11.62411,-9.18448 2.43963,-1.14807 5.30978,-1.7221 8.61045,-2.72666 3.30069,-1.14806 6.45784,-2.29611 9.75853,-3.30067 3.30067,-1.14805 5.88382,-2.29611 7.74941,-2.72664 2.29612,-0.86104 3.58769,-1.43507 4.16172,-1.43507 0.86104,0 1.43507,-0.86106 2.29612,-1.14807 1.14806,-0.28701 1.72209,-1.43507 2.72665,-2.29612 1.14806,-1.14807 1.43507,-2.29612 2.29611,-3.30068 0.86106,-1.43507 1.14807,-2.72664 1.14807,-4.73575 v -3.8747 c 0,-1.43508 -0.28701,-2.72665 -1.14807,-4.16172 -0.28701,-1.43508 -1.43507,-2.72665 -2.72664,-3.87471 -1.43507,-1.43507 -3.30067,-2.29612 -5.88381,-3.30067 -2.29612,-0.86105 -5.30977,-1.14806 -8.89748,-1.14806 -7.17538,0 -11.62411,1.43507 -14.20725,4.16172 -2.29612,2.43962 -3.58769,5.88381 -3.58769,9.18449 0,0.86103 -0.86104,1.43507 -1.43506,1.43507 h -15.06831 c -0.86105,0 -1.43508,-0.86104 -1.43508,-1.43507 v -3.5877 c 0,-3.58768 0.86104,-6.74485 2.29613,-10.04553 1.43507,-3.300677 3.58769,-5.883814 6.45784,-8.323443 2.72664,-2.296122 6.74485,-4.161722 11.4806,-5.309781 4.01821,-0.861046 9.90202,-2.009108 16.35987,-2.009108 z m 209.09061,0 h 10.33254 c 1.14806,0 1.43508,1.148062 1.43508,1.722091 l -3.58769,13.346211 c 0,0.86105 -0.86105,1.14806 -1.43507,1.14806 h -7.03189 c -3.87469,0 -6.74486,0.28702 -9.18448,1.43508 -2.29612,1.14806 -4.16172,2.29612 -5.30977,3.58769 -1.43509,1.43508 -2.29613,2.72665 -2.43964,4.16172 -0.28702,1.43508 -0.28702,2.72664 -0.28702,4.16172 v 83.37793 c 0,0.86104 -0.86104,1.43506 -1.43507,1.43506 h -15.35532 c -0.86104,0 -1.43507,-0.86103 -1.43507,-1.43506 v -86.96562 c 0,-1.43507 0.28701,-3.8747 1.14806,-6.74486 0.28701,-2.72664 2.29611,-5.88381 4.73574,-8.610459 2.43964,-2.726644 6.17083,-5.309782 10.90659,-7.462396 3.58769,-2.009105 10.47606,-3.157167 18.94301,-3.157167 z m -51.80625,84.669502 v 3.8747 c 0,1.7221 -0.28702,3.87471 -1.14808,6.74485 -0.28701,2.72665 -2.29611,5.88382 -4.73574,8.61046 -2.58314,2.72666 -6.17083,5.30979 -10.90658,7.4624 -5.02276,2.29613 -11.48061,3.30067 -20.09107,3.30067 -8.61046,0 -15.35531,-1.14805 -20.09106,-3.30067 -5.02277,-2.29612 -8.61045,-4.73574 -10.90659,-7.4624 -2.43962,-2.72664 -3.87469,-5.88381 -4.73575,-8.61046 -0.28702,-2.72663 -1.14805,-5.02275 -1.14805,-6.74485 V 84.871207 c 0,-0.861046 0.86103,-1.435076 1.43508,-1.435076 h 15.35531 c 0.86104,0 1.43507,0.861046 1.43507,1.435076 v 81.655843 c 0,2.72664 0.28702,4.73575 0.86105,6.17081 0.28702,1.43509 1.14806,3.30069 2.29612,4.16174 1.14807,1.43506 2.72665,2.43962 5.30979,3.58768 2.29611,1.14807 5.30977,1.43509 9.75851,1.43509 3.87471,0 7.4624,-0.28702 10.04554,-1.43509 2.58314,-1.14806 4.16172,-2.29611 5.30978,-3.30067 1.43507,-1.43507 2.29613,-2.72664 2.43962,-4.16172 0.28702,-1.43508 1.14806,-2.72665 1.14806,-6.45784 V 85.30173 c 0,-0.861046 0.86106,-1.435076 1.43509,-1.435076 h 15.35531 c 0.86105,0 1.43507,0.861045 1.43507,1.435076 z M 601.5661,41.818921 h 15.35531 c 0.86105,0 1.43508,0.861046 1.43508,1.435076 V 196.23312 c 0,0.86104 -0.86105,1.43507 -1.43508,1.43507 H 601.5661 c -0.86104,0 -1.43507,-0.86104 -1.43507,-1.43507 V 43.253997 c 0.1435,-0.57403 0.57403,-1.435076 1.43507,-1.435076 z"
     id="alura"
     style="display:inline;stroke-width:1.43508" /><g
     id="ícone"
     transform="matrix(1.0061005,0,0,1.0061005,1.9707187,-6.5981941)"><path
       d="m 102.4,11.9 h 218.7 c 54.1,0 97.6,43.6 97.6,97.6 v 218.8 c 0,54.1 -43.6,97.6 -97.6,97.6 H 102.4 c -54,0 -97.6,-43.6 -97.6,-97.6 V 109.6 C 4.7,55.5 48.3,11.9 102.4,11.9 Z"
       style="display:inline;fill:#da8a40"
       id="path12"
       clip-path="url(#clipPath893)"
       inkscape:path-effect="#path-effect905"
       inkscape:original-d="m 102.4,11.9 h 218.7 c 54.1,0 97.6,43.6 97.6,97.6 v 218.8 c 0,54.1 -43.6,97.6 -97.6,97.6 H 102.4 c -54,0 -97.6,-43.6 -97.6,-97.6 V 109.6 C 4.7,55.5 48.3,11.9 102.4,11.9 Z" /></g></svg>
