<?xml version="1.0" encoding="UTF-8" standalone="no"?>
<!-- Generator: Adobe Illustrator 16.0.0, SVG Export Plug-In . SVG Version: 6.00 Build 0)  -->

<svg
   version="1.1"
   id="Capa_1"
   x="0px"
   y="0px"
   width="48"
   height="48"
   viewBox="0 0 48 48"
   xml:space="preserve"
   sodipodi:docname="emailicon.svg"
   inkscape:version="1.2.1 (9c6d41e410, 2022-07-14)"
   xmlns:inkscape="http://www.inkscape.org/namespaces/inkscape"
   xmlns:sodipodi="http://sodipodi.sourceforge.net/DTD/sodipodi-0.dtd"
   xmlns="http://www.w3.org/2000/svg"
   xmlns:svg="http://www.w3.org/2000/svg"><defs
   id="defs460" /><sodipodi:namedview
   id="namedview458"
   pagecolor="#ffffff"
   bordercolor="#000000"
   borderopacity="0.25"
   inkscape:showpageshadow="2"
   inkscape:pageopacity="0.0"
   inkscape:pagecheckerboard="0"
   inkscape:deskcolor="#d1d1d1"
   showgrid="false"
   inkscape:zoom="9.7582021"
   inkscape:cx="39.351511"
   inkscape:cy="33.510271"
   inkscape:window-width="1920"
   inkscape:window-height="1017"
   inkscape:window-x="-8"
   inkscape:window-y="-8"
   inkscape:window-maximized="1"
   inkscape:current-layer="Capa_1" />
<g
   id="g425"
   transform="matrix(0.09892603,0,0,0.08793431,1.028835e-6,2.6666967)">
	<path
   d="m 485.211,363.906 c 0,10.637 -2.992,20.498 -7.785,29.174 L 324.225,221.67 475.765,89.086 c 5.895,9.355 9.446,20.344 9.446,32.219 z M 242.606,252.793 453.469,68.293 c -8.653,-4.737 -18.397,-7.642 -28.908,-7.642 H 60.651 c -10.524,0 -20.271,2.905 -28.889,7.642 z m 58.787,-11.162 -48.809,42.734 c -2.855,2.487 -6.41,3.729 -9.978,3.729 -3.57,0 -7.125,-1.242 -9.98,-3.729 L 183.806,241.629 28.667,415.23 c 9.299,5.834 20.197,9.329 31.983,9.329 h 363.911 c 11.784,0 22.687,-3.495 31.983,-9.329 z M 9.448,89.085 C 3.554,98.44 0,109.429 0,121.305 v 242.602 c 0,10.637 2.978,20.498 7.789,29.174 l 153.183,-171.44 z"
   id="path423" />
</g>
<g
   id="g427">
</g>
<g
   id="g429">
</g>
<g
   id="g431">
</g>
<g
   id="g433">
</g>
<g
   id="g435">
</g>
<g
   id="g437">
</g>
<g
   id="g439">
</g>
<g
   id="g441">
</g>
<g
   id="g443">
</g>
<g
   id="g445">
</g>
<g
   id="g447">
</g>
<g
   id="g449">
</g>
<g
   id="g451">
</g>
<g
   id="g453">
</g>
<g
   id="g455">
</g>
</svg>
