<?xml version="1.0" encoding="UTF-8" standalone="no"?>
<!-- Created with Inkscape (http://www.inkscape.org/) -->

<svg
   width="127.14274"
   height="127.17339"
   viewBox="0 0 33.639849 33.64796"
   version="1.1"
   id="svg244"
   inkscape:export-filename="favicon.svg"
   inkscape:export-xdpi="96"
   inkscape:export-ydpi="96"
   xmlns:inkscape="http://www.inkscape.org/namespaces/inkscape"
   xmlns:sodipodi="http://sodipodi.sourceforge.net/DTD/sodipodi-0.dtd"
   xmlns="http://www.w3.org/2000/svg"
   xmlns:svg="http://www.w3.org/2000/svg">
  <sodipodi:namedview
     id="namedview246"
     pagecolor="#ffffff"
     bordercolor="#000000"
     borderopacity="0.25"
     inkscape:showpageshadow="2"
     inkscape:pageopacity="0.0"
     inkscape:pagecheckerboard="0"
     inkscape:deskcolor="#d1d1d1"
     inkscape:document-units="mm"
     showgrid="false"
     showguides="false" />
  <defs
     id="defs241" />
  <g
     inkscape:label="Capa 1"
     inkscape:groupmode="layer"
     id="layer1"
     transform="translate(-0.11340923,-0.10935244)">
    <g
       id="ícone"
       transform="matrix(0.08127527,0,0,0.08127527,-0.27669811,-0.85782327)">
      <path
         d="m 102.4,11.9 h 218.7 c 54.1,0 97.6,43.6 97.6,97.6 v 218.8 c 0,54.1 -43.6,97.6 -97.6,97.6 H 102.4 c -54,0 -97.6,-43.6 -97.6,-97.6 V 109.6 C 4.7,55.5 48.3,11.9 102.4,11.9 Z"
         style="fill:#da8a40"
         id="path12" />
      <path
         class="st3"
         d="m 204,228.7 c -4.7,30.2 -33.3,51.9 -68.6,51.9 -42.6,0 -73.6,-30.7 -73.6,-73.2 0,-5.2 0.5,-32.3 21.2,-52.9 9.4,-9.3 19.1,-13.5 23.6,-15.5 10.5,-4.5 21.2,-6.3 85.5,-6.3 h 3.6 c 7.3,9 14.6,18.1 21.9,27 -21.2,-0.1 -50.2,0.3 -81.4,2.1 -5.7,0.3 -14.3,0.9 -22.8,6.5 -11.8,7.7 -19,21.7 -19,39 0,26.7 17.4,45.5 41.8,45.5 17.4,0 33.1,-11.9 37.4,-28 z"
         id="path14"
         style="fill:#ffffff" />
      <path
         class="st3"
         d="m 244.4,219.3 c 1.1,19 18.8,33.6 40.7,33.6 25.9,0 44.6,-19.2 44.6,-45.5 0,-16 -6.6,-29.3 -17.4,-37.3 -7.9,-5.9 -16.1,-7.1 -26.1,-8.3 -16.2,-1.8 -39.4,-3.4 -68.5,-2.1 -7.3,-9 -14.6,-18.1 -21.9,-27 16.2,-0.2 30.1,-0.1 41,0 23.8,0.2 35.8,0.6 41.8,0.9 10.3,0.4 15.4,0.7 17.3,0.9 6.9,0.9 32.4,4.6 50.3,26.2 14.7,17.7 16.1,38.4 16.1,46.6 0,42.4 -31.9,73.2 -76.4,73.2 -46.5,0 -77.3,-34.6 -72.8,-82.4 h 74 v 21.2 z m 64.7,-88.4 c -1.7,-0.6 -4.1,-1.4 -6.9,-2.2 -1.6,-0.4 -2.8,-0.8 -4.3,-1 -4.3,-0.9 -7.8,-0.9 -12.1,-1 -1.3,0 -3,-0.1 -5.2,0 V 68.6 h 28.6 c -0.1,20.7 -0.1,41.6 -0.1,62.3 z"
         id="path16"
         style="fill:#ffffff" />
      <path
         d="m 219,319.6 c 0.4,2.2 2.7,12.7 13.1,18.9 0,0 7.7,4.1 17.4,4.2 1.1,0 16,-0.5 25.7,-11.4 7.4,-8.3 7.9,-18.2 8.1,-22.4 0.1,-1.1 0,-1.2 -0.2,-11.8 -0.1,-5.4 -0.2,-9.8 -0.2,-12.7 3.6,0.3 8.1,0.4 13.2,0 4,-0.3 7.5,-1 10.3,-1.7 v 26.1 c -0.1,4.3 -0.5,17.3 -8.9,29.9 -6.2,9.4 -14.4,14.7 -19,17.2 -14.7,8.1 -28.7,7.7 -31.4,7.6 -2.9,-0.2 -9.9,-0.7 -18.1,-3.8 -2.3,-0.9 -8.9,-3.5 -15.7,-9.1 -2.3,-1.8 -8.2,-7 -13.2,-15.5 -3.6,-6.1 -5.2,-11.7 -6,-15.8 8.4,0.1 16.6,0.2 24.9,0.3 z"
         style="fill:#ffffff;stroke:#ffffff;stroke-width:2"
         id="path18" />
      <path
         class="st3"
         d="m 232.1,293.8 h -47.7 c -6.9,0 -12.4,6.4 -12.4,14.2 v 2.7 c 0,7.8 5.6,14.2 12.4,14.2 h 47.8 c 6.9,0 12.4,-6.4 12.4,-14.2 V 308 c -0.2,-7.8 -5.8,-14.2 -12.5,-14.2 z"
         id="path20"
         style="fill:#ffffff" />
    </g>
  </g>
</svg>
