<?xml version="1.0" encoding="UTF-8" standalone="no"?>
<svg
   viewBox="0 0 48 48"
   version="1.1"
   id="svg4"
   sodipodi:docname="linkedicon.svg"
   width="48"
   height="48"
   inkscape:version="1.2.1 (9c6d41e410, 2022-07-14)"
   xmlns:inkscape="http://www.inkscape.org/namespaces/inkscape"
   xmlns:sodipodi="http://sodipodi.sourceforge.net/DTD/sodipodi-0.dtd"
   xmlns="http://www.w3.org/2000/svg"
   xmlns:svg="http://www.w3.org/2000/svg">
  <defs
     id="defs8" />
  <sodipodi:namedview
     id="namedview6"
     pagecolor="#ffffff"
     bordercolor="#000000"
     borderopacity="0.25"
     inkscape:showpageshadow="2"
     inkscape:pageopacity="0.0"
     inkscape:pagecheckerboard="0"
     inkscape:deskcolor="#d1d1d1"
     showgrid="false"
     inkscape:zoom="9.2476309"
     inkscape:cx="16.652914"
     inkscape:cy="34.495321"
     inkscape:window-width="1920"
     inkscape:window-height="1017"
     inkscape:window-x="-8"
     inkscape:window-y="-8"
     inkscape:window-maximized="1"
     inkscape:current-layer="svg4" />
  <path
     d="M 44.161431,-2.5e-8 H 4.1010621 C 1.9129958,-2.5e-8 1.2083561e-7,1.5754101 1.2083561e-7,3.738473 V 43.88643 C 1.2083561e-7,46.061993 1.9129958,48 4.1010621,48 H 44.148928 c 2.200575,0 3.851002,-1.95051 3.851002,-4.11357 V 3.738473 C 48.012455,1.5754101 46.349503,-2.5e-8 44.161431,-2.5e-8 Z M 14.878853,40.010423 H 8.0020731 V 18.629851 H 14.878853 Z M 11.678026,15.379006 h -0.05002 c -2.2005755,0 -3.6259429,-1.637925 -3.6259429,-3.688462 0,-2.0880438 1.4628824,-3.6884605 3.7134599,-3.6884605 2.250585,0 3.625942,1.5879134 3.675952,3.6884605 0,2.050537 -1.425367,3.688462 -3.713459,3.688462 z m 28.332335,24.631417 h -6.87678 v -11.69055 c 0,-2.800732 -1.000259,-4.713727 -3.488407,-4.713727 -1.900492,0 -3.025785,1.287832 -3.525914,2.538165 -0.187545,0.450112 -0.237563,1.062772 -0.237563,1.687935 V 40.010423 H 19.004918 V 18.629851 h 6.876779 v 2.975775 c 1.00026,-1.425375 2.56317,-3.475905 6.201607,-3.475905 4.513672,0 7.927057,2.975775 7.927057,9.389947 z"
     id="path2"
     style="stroke-width:0.125032" />
</svg>
